<svg id="Layer_1" data-name="Layer 1" xmlns="http://www.w3.org/2000/svg" viewBox="0 0 915.33 409.21"><defs><style>.cls-1{fill:#fff;}</style></defs><path class="cls-1" d="M1243.33,710.12,1139.68,529.48a39.18,39.18,0,0,1,.07-39.12L1243.34,311.3a9,9,0,0,1,12.33-3.29h0A39.18,39.18,0,0,1,1270,361.53l-83.29,144a9,9,0,0,0,0,9L1270.12,660a39.17,39.17,0,0,1-14.48,53.48h0A9,9,0,0,1,1243.33,710.12Z" transform="translate(-1134.48 -306.79)"/><path class="cls-1" d="M1941,711.47l103.64-180.64a39.17,39.17,0,0,0-.07-39.11L1941,312.65a9,9,0,0,0-12.32-3.29h0a39.18,39.18,0,0,0-14.3,53.53l83.29,144a9,9,0,0,1,0,9l-83.46,145.47a39.18,39.18,0,0,0,14.48,53.48h0A9,9,0,0,0,1941,711.47Z" transform="translate(-1134.48 -306.79)"/><path class="cls-1" d="M1368.17,630.85a71.53,71.53,0,0,1-30.4-31.26q-10.49-20.52-10.48-49.57v-67.4q0-29.06,10.48-49.58a72,72,0,0,1,30.4-31.34q19.93-10.8,48-10.81,23.14,0,41.39,10t30.15,29a103.06,103.06,0,0,1,6.93,13.11,23.31,23.31,0,0,1-21.3,32.75h-.4A23.33,23.33,0,0,1,1451.69,462a52.77,52.77,0,0,0-3.87-7,40.18,40.18,0,0,0-13.69-13.17,35.75,35.75,0,0,0-18-4.56q-13,0-22.12,5.32A34.42,34.42,0,0,0,1380.08,458q-4.82,10.21-4.81,24.58V550q0,14.36,4.81,24.49A34.48,34.48,0,0,0,1394,590q9.12,5.31,22.12,5.32a37.08,37.08,0,0,0,18.25-4.48,38.43,38.43,0,0,0,13.68-13.09,50,50,0,0,0,3.74-7,23.39,23.39,0,0,1,21.35-14h0a23.31,23.31,0,0,1,21.28,32.8,105.12,105.12,0,0,1-6.93,13.07q-11.91,19-30.06,29t-41.31,10Q1388.11,641.57,1368.17,630.85Z" transform="translate(-1134.48 -306.79)"/><path class="cls-1" d="M1577.64,402.12h16.95L1616,476.85l14.41-74.73h21.73l-25.81,112h-19.88l-19.88-78.27-20.8,78.27H1545.9l-25.81-112h21.73l14.41,74.73Z" transform="translate(-1134.48 -306.79)"/><path class="cls-1" d="M1666,402.12h21.11v112H1666Zm7.63,0h67.42v20.34h-67.42Zm0,46.23h58.94v20.34h-58.94Zm0,45.45h67.42v20.34h-67.42Z" transform="translate(-1134.48 -306.79)"/><path class="cls-1" d="M1760.32,402.12h21.11v112h-21.11Zm9.24,91.68h35.75q7.25,0,11.21-3.5t4-9.82v-.24a14,14,0,0,0-1.77-7.24,11.38,11.38,0,0,0-5.2-4.58,19.55,19.55,0,0,0-8.21-1.58h-35.75V446.5h35.75q6.56,0,10.13-3.31t3.59-9.33a10.35,10.35,0,0,0-3.59-8.39q-3.57-3-10.13-3h-35.75V402.12H1806q10.86,0,18.56,3.58a25.85,25.85,0,0,1,11.72,10.4,31.81,31.81,0,0,1,4,16.38,25.1,25.1,0,0,1-2.58,11.59,21.38,21.38,0,0,1-7.51,8.28,30.47,30.47,0,0,1-11.87,4.4,29.83,29.83,0,0,1,12.68,4.5,22.69,22.69,0,0,1,8,9.13,29.48,29.48,0,0,1,2.73,13v.23q0,9.64-4,16.49a25.94,25.94,0,0,1-11.79,10.44q-7.74,3.59-18.6,3.58h-37.76Z" transform="translate(-1134.48 -306.79)"/><path class="cls-1" d="M1534.52,538.27h20.83V648.8h-20.83ZM1545,628.73h26.53q10.26,0,15.89-4.94t5.63-14V577.26q0-9-5.63-14t-15.89-4.95H1545V538.27h26.08q13.83,0,23.6,4.63a32.94,32.94,0,0,1,14.86,13.53q5.1,8.9,5.09,21.44v31.32q0,11.94-4.9,20.83A33.41,33.41,0,0,1,1595,643.85q-9.81,4.95-24,4.95h-26Z" transform="translate(-1134.48 -306.79)"/><path class="cls-1" d="M1649.49,538.27h20.83V648.8h-20.83Zm7.53,0h66.51v20.06H1657Zm0,45.61h58.15V604H1657Zm0,44.85h66.51V648.8H1657Z" transform="translate(-1134.48 -306.79)"/><path class="cls-1" d="M1745.46,538.27h21.43L1790.38,612l23.49-73.73h21.44L1798.52,648.8h-16.27Z" transform="translate(-1134.48 -306.79)"/></svg>